<svg width="56" height="56" viewBox="0 0 56 56" fill="none" xmlns="http://www.w3.org/2000/svg">
<rect width="56" height="56" fill="#1567A4"/>
<g clip-path="url(#clip0_17500_305)">
<g clip-path="url(#clip1_17500_305)">
<path d="M33.4778 14.7495C33.1849 15.3147 33.4829 16.0258 34.0939 16.21C34.2087 16.2445 34.4068 16.2615 34.6881 16.2609C34.8896 16.2607 35.0903 16.2584 35.2902 16.254C35.3047 16.2538 35.312 16.261 35.312 16.2756L35.3135 18.4015C35.3135 18.4074 35.3113 18.4131 35.3072 18.4173C35.3031 18.4215 35.2975 18.424 35.2917 18.4243C34.9987 18.4327 34.7027 18.4364 34.4036 18.4354C32.2612 18.4285 30.7121 16.3852 31.3117 14.3206C31.6604 13.1199 32.7033 12.2064 33.9558 12.0354C34.3554 11.9808 34.8472 12.0042 35.2824 12.0096C35.2874 12.0097 35.2922 12.0117 35.2957 12.0153C35.2993 12.0189 35.3012 12.0237 35.3012 12.0288L35.3048 14.1793C35.3048 14.1806 35.3046 14.1818 35.3041 14.183C35.3036 14.1842 35.3029 14.1853 35.302 14.1862C35.3011 14.1871 35.3001 14.1877 35.2989 14.1882C35.2977 14.1887 35.2965 14.1889 35.2953 14.1889C35.088 14.1869 34.8805 14.1854 34.6729 14.1844C34.3977 14.1834 34.2046 14.1989 34.0936 14.2311C33.8212 14.3102 33.616 14.483 33.4778 14.7495Z" fill="white"/>
<path d="M32.6299 22.672C32.6294 22.6678 32.6275 22.6638 32.6245 22.6608C32.6215 22.6579 32.6176 22.656 32.6134 22.6555C31.2461 22.504 29.8525 22.4758 28.4783 22.4809C28.4708 22.4809 28.4635 22.4779 28.4582 22.4726C28.4529 22.4672 28.4499 22.46 28.4499 22.4525L28.4487 19.496C28.4487 19.4804 28.4565 19.4726 28.472 19.4726L35.2947 19.4729C35.302 19.4729 35.309 19.4758 35.3141 19.481C35.3193 19.4861 35.3222 19.4931 35.3222 19.5004L35.3225 42.6906C35.3225 42.7022 35.3174 42.7106 35.3072 42.7158C33.2684 43.7575 30.8532 44.0717 28.5856 43.9869C28.4118 43.9803 28.1749 43.9562 27.8748 43.9147C25.9389 43.6467 24.4165 42.7248 23.3075 41.149C22.6327 40.1903 22.1604 39.044 21.8558 37.8996C21.5116 36.606 21.3343 35.2743 21.2708 33.9388C21.1924 32.2885 21.262 30.6448 21.4799 29.0076C21.4819 28.9918 21.4847 28.9827 21.4883 28.9801C21.5056 28.9675 21.5151 28.9719 21.5167 28.9932C21.5275 29.1268 21.5471 29.2579 21.5754 29.3865C21.7195 30.0415 21.8444 30.6112 22.0654 31.3327C22.9763 34.3105 24.9207 37.7322 28.4957 37.8229C28.7221 37.8287 28.9212 37.819 29.0929 37.7939C30.9029 37.5285 31.8005 35.6706 32.2231 34.1026C32.4338 33.3201 32.5877 32.5264 32.6847 31.7215C32.7079 31.5288 32.731 31.3359 32.7542 31.1428C32.7795 30.9308 32.7989 30.7378 32.8123 30.5639C33.0037 28.0656 32.924 25.4674 32.6601 22.9392C32.6506 22.8479 32.6405 22.7589 32.6299 22.672Z" fill="white"/>
</g>
</g>
<defs>
<clipPath id="clip0_17500_305">
<rect width="32" height="32" fill="white" transform="translate(12 12)"/>
</clipPath>
<clipPath id="clip1_17500_305">
<rect width="32" height="32" fill="white" transform="translate(12 12)"/>
</clipPath>
</defs>
</svg>
